<svg id="_x31_" xmlns="http://www.w3.org/2000/svg" viewBox="0 0 600 600"><style>.st0{fill:#ffc758}</style><path class="st0" d="M569.2 234.1c-3.6-22.9-8.4-45.7-13.3-67.9-8.2-37.4-17.9-74.9-36.6-108.6-4.8-8.7-9.1-17-16.5-24.1-4.9-4.8-11.3-10.5-18.7-10.6-8-.1-15.2 3.8-18.6 10.7-.9 1.8-1.8 3.6-2.6 5.5-26.5 37.1-55.9 71.9-96.6 94-9.3 5.1-19.1 9.3-28.5 14.1-10.2 5.3-20.1 11.1-30.5 16.1-2.3 1.1-4.6 2.2-7 3.3-8.8 3.2-17.6 6.7-26.6 9.9-.8.2-1.6.3-2.4.6v-.1c-.7-2.3-2.5-2.9-4.5-3.3-1.3-1.4-3.3-2.2-5.2-2.6-1.1-.2-2.1-.2-3.2.1-2.8-.2-5.8.3-9.2.6-11.3 1.1-22.3 3.8-33.6 4.9-10.4 1-20.6 3.9-30.7 6.4-10.2 2.4-20.7 3.1-30.8 5.8-10 2.7-19.9 5.6-29.9 8.2-10.9 2.9-22.3 5-33 8.7-9.7 3.4-17.5 5.3-24.9 12.9-1.1 1.1-2.1 2.3-3 3.6-.7.5-1.2 1.3-2.1 2.5-2.7 3.9-5.3 9.8-6.7 14.4-.9.6-1.8 1.2-2.6 1.8-3.7 3.2-7.6 6.6-11 10.1-6.3 6.6-9.9 17.2-12.5 25.8-6.6 22.3-3.1 44.3 3 66.2 5 17.7 11.7 39.9 26 52.4 7.9 6.9 13.4 9 23.8 9.8 2.1.2 4.2.3 6.2.4v-.1c-.1-.3-.2-.6-.3-.8 7.7 7.3 18.5 10.5 29 9.6 1.2 7.4 5.3 14.8 8.5 21.4 3.1 6.3 8.7 11.6 16.2 11.1 1.4-.1 2.8-.3 4.2-.6 4.6 8.3 8.6 16.8 12.5 25.6 9.9 22.6 18.4 45.9 28.8 68.3 7.3 15.7 14.4 38.9 35.7 36.8 12.6-1.2 23.6-1.3 35.2-7.6 4.8-2.6 16.8-7.8 19.7-12.2 3.3-5 3.3-16.8 2-22.5-1.2-5.3-8.1-9.3-11.6-12.9-24.6-25.2-35.2-57-27.1-91.3 1-4.4.1-8.6-2.3-12.4-2.3-3.6-6.5-4.3-10.1-6 1.3.2-.7-5.4-1.3-5.5-12.9-2.7-11.1-9.2-11.8-9.1 2.9-.2 5.8-.3 8.6-1 16.9-4.4 34.7-5 51.8-8.6 12.3-2.6 21.1-10.5 26.9-21.2.5-1 .5-1.9.1-2.7 1.4-.1 2.8-.3 4.2-.4 14.9-.4 30-2.5 44.7-3.7 18.7-1.6 37.6-2.4 56.3-4.1 19.5-1.7 39.5-2.4 59 .1 21.4 2.8 41.9 9.8 62.7 15.5 11.6 7.5 24.9 8.9 34-7.4 7.5-13.5 10.1-26.1 11.2-41.1 2.2-29.5-.4-59.3-5-88.8zM79.7 399c-22.7-3.2-30.8-26.5-37.9-45.4-8.6-22.8-12.1-45.3-8.2-69.3 1.7-10.5 6.3-22.7 13.8-30.5.7-.7 2.3-2.2 4.3-3.9-1.2 5.5-1.9 11.1-1.7 16.6.9 25.6 5.5 49.7 11.6 74.5 4.5 18.4 10.2 38.3 19.1 55.1.6 1.2 1.3 2.2 2 3.3-1-.1-2-.2-3-.4zm169 167.3c-7 2.7-13.9 3.9-21.3 3.5-7.2-.4-14.6 1.6-20.2-4.5-3-3.3-4.8-8.8-6.8-12.7-2.5-5.1-5.1-10.2-7.7-15.3-4.8-9.6-8.4-20-12.3-30-8.2-20.9-17.1-42.7-28-62.3-.1-.2-.3-.5-.4-.7 3.4-1.4 6.7-3.1 9.9-5.1 5.6-3.4 13.4-5.4 17.4-10.8.8-1 .2-3.2-1.4-2.9-11.6 1.7-20.4 10.1-31.3 13.8-10.2 3.5-14.8-3.7-18.6-11.6-2.3-4.9-5.3-9.1-8-13.6.6 1 46.6-7.4 49.5-7.9 7.9-1.5 15.5-3.5 23.4-4.9 1 10 10.1 21.2 18.6 24.7 5.8 2.4 9 4 11.8 10.1 2.7 6-.4 12.7-2.2 18.3-2.3 7.4-1.2 15.4-.5 23 1.7 19.1 11.7 30.2 19.7 47.2 3.6 7.5 8.5 11.8 14.7 21.7 2.4 3.8 5.1 9.2 9.5 11.1-5.5 2.6-10.1 6.7-15.8 8.9zm-25.8-149.7c.1.1.2.1.4.2 6.2 2.8 12.8 3.6 11.6 12.4-1.9 13.2-5.2 26.3-3 39.7 2.3 13.9 8.5 27.9 15.9 39.8 5.2 8.4 15 21.2 22.4 27.7 5.8 5 5.6 9.8 1 16.4-.1.2-1.4.9-1.6 1.1-3.4-2.1-20.5-22.9-24.2-30.8-3.3-6.9-6.5-11.8-10.3-18.4-7.6-13.3-9.7-28.8-9.1-44 .3-6.3 3.6-12.4 4.2-18.8.5-5.4-2-10.6-4.5-15.3-2.6-4.8-7.7-4.5-12.2-6.3-7.6-3.1-12.7-12.2-16.1-19.9 1-.2 2-.3 3-.5.1 1.1 1.4 3.9 1.7 4.4 2.7 3.6 4.8 7.2 8.2 10.3 2.2 2 4.9 4.3 7.9 4.7 2.1.2 3.5-1.2 4.7-2.7zm-4.8-5.4c.7.5.3 1.5 0 2.1-.8-.4-11.3-.7-15.3-13.7 1.4-.2 2.7-.5 4.1-.7.6 3.2 5.5 8.5 11.2 12.3zm69.1-36c-1.8-.2-3.6-1-4.7-1.9-3.4-3-6.1-6-8.2-9.9-4.1-7.4-6.2-15.8-10.3-23.2-.5-.9-2.3-.2-2.1.8 1 7.7 4.1 14.8 7.1 21.8 2.6 6.2 7.1 9.4 11.2 14.4.4.5.9.9 1.4 1.3-.3.2-.6.3-1 .5-7.7 3.4-16.7 4.3-24.9 5.9-14.2 2.8-28.9 4-43.2 6.3-22.7 3.7-45 9.1-67.7 12.6-13.5 2-25.3 7.3-39.2 3.5-7.8-2.1-15.2-7.8-19.2-14.9-4.1-7.2-6.8-15.8-9.1-23.7-2.8-9.6-6.6-18.9-8.9-28.7-4.6-19.5-9-38.2-10.5-58.2-.7-10.5-.8-20.2.4-30.7.6-4.7 2.4-9.9 4.4-14.2 1.5-3.3 3.5-9.1 5.9-11.8.5-.6.7-1.1.7-1.7.8-.9 1.6-1.8 2.5-2.6 1.4-1.4 2.9-2.6 4.5-3.8 9.5-4.9 21.7-6.8 31-8.9 17.2-3.9 34.3-8.9 51.4-13.5 8.2-2.2 16.8-2.7 25.1-4.5 8.5-1.8 17-3.9 25.5-5.8 8.6-1.9 17.6-2.9 26.3-4.4 1-.2 2.2-.4 3.5-.6-2.9 5.6-3.8 13.7-4.5 18.1-2.8 17.4.5 35.3 3.1 52.5.1.4.9.7.9.1-.6-13-2.1-26-1.7-39 .3-7.1.9-14 2.7-20.9.8-2.9 2.3-9 5-11.8 3.2-.5 6.6-.9 9.7-.8-.7.4-1.5.8-2.2 1.4h-.1c-9.2 3.4-5.8 19.7-5.5 27.1.7 18.7 2.5 37.5 4.6 56.2 2 18 6.5 35.7 11.2 53.2 2.4 8.8 7.2 17.3 11.1 25.5 2.2 4.7 4.7 9.1 7.1 13.7.9 1.7 8.3 10.8 8.2 12.3-.1 1.3 1.6 2.3 2.4 1 .5-.9.8-1.6.8-2.4.8-.3 1.5-.6 1.8-.7.8-.1 1.7-.2 2.5-.3-2.8 4.7-5.4 8-9 10.7zm136.9-27c-21.1 1-42.2 2.8-63.2 4.9-8.3.8-16.8 1.5-25.3 2.3-13.3.4-26.9 3-40 4.8-1.3.2-3.8 1-5.8 1.5-3.7-5.4-6.1-11.6-9.1-17.5-4.5-8.9-8.6-18-12-27.4-3.3-8.9-4.9-18.4-7.4-27.6-4.9-18.5-5.9-37.8-7.5-56.7-.7-8.1-1.7-16.2-1.9-24.3-.1-3-1.6-15.1-.2-21 .4-.2.9-.4 1.2-.7 1.7-1.4 3.6-2.5 5.7-3.2 1-.2 2.1-.4 3.2-.6 1.2-.1 2.3-.2 3.3-.7 1.5-.3 2.6-.6 3-.7 2.5-.8 5.1-1.5 7.6-2.3 1.2-.1 2.2-.2 2.6-.3 2.6-.4 5.2-1.4 7.6-2.1 8.1-2.5 16-5.7 23.7-9.2 44.9-20.5 87.6-41.3 121.1-78.5 8.3-9.3 16.7-18.7 24-28.9-3.5 11.3-5.9 22.8-7.6 35.1-3.2 23.7-1.3 48 .9 71.7 1.1 12 2.3 23.8 4.3 35.7 1.9 11.4 4.6 22.7 6.5 34.2 2.5 15 7.8 28.4 13 42.6 5.3 14.5 11.2 27.9 18.8 41.5 7 12.5 14.2 24.6 23 36 1.6 2 3.3 4.1 5.2 6-30-12-62.1-16.1-94.7-14.6zm135.8 3c-4.3 11.4-18.6 21.1-28.3 15-12.5-8-21.4-24.5-29.2-36.6-19.5-29.9-30.8-62.6-38.4-97.3-13.5-62-23.5-135.5 6.2-194.6 9.2-18.3 26.8-2.5 34.7 7.7 23.2 30.5 33.4 68.3 40.3 105.4 7.3 40.1 34.2 149 14.7 200.4z"/><path class="st0" d="M516.1 71.7c-3.8-7.9-7.1-15.3-12.9-21.8-3.8-4.3-8.7-9.5-14.4-9.7-6.1-.2-11.5 3.2-14 9.3-7.3 17.7-11 35.2-13 54.7-2.2 21.1-.4 43 1.6 64.2 1 10.8 2.1 21.4 3.7 32.1 1.6 10.3 3.8 20.4 5.4 30.7 2.1 13.5 6.3 25.5 10.4 38.3 4.2 13.1 8.9 25.1 14.8 37.4 5.5 11.3 11.1 22.2 17.9 32.6 9.5 14.5 27.5 28.8 37.6 7 5.6-12 7.3-23.3 8-36.7 1.3-26.3-1.1-53-4.9-79.4-3-20.6-7-41-11-60.9-6.6-33.7-14.5-67.4-29.2-97.8zm-36.2 172.2c-1.3-5.5-2.5-11-3.6-16.6-3.5-17.5-6.7-35.9-8.8-54.7 5.3 0 10.6.3 15.9.8 2.5.4 5.1.6 7.7.6 5.1.4 10.3.7 15.4.6 3.3.4 6.4 1.1 9.3 2.4-1.2.4-2.6 1.4-3.9 3.1-3.5 4.5-1.4 16.8-1.1 21.8.5 8.2 1.2 16.3 6.6 22.9.7.8 1.5 1.4 2.4 1.8-.3.1-.6.3-.9.4-3.1 1-6.3 1.8-9.4 2.9-5.4 1.9-10.7 5-15.7 7.7-4.1 2.2-9 3.1-13 5.6-.3.1-.6.4-.9.7zm44.8-22.8c-8.6-2.7-11.9-27.7-8.8-34.7 1-2.2 2.3-3.2 2.6-2.4 14.4 31.1 3.6 36.2 6.2 37.1zm26.1 114c-3.2 10.2-13.9 18.7-21.3 13-9.6-7.3-16.6-22.2-22.7-33.2-11.5-20.4-19.4-42.2-25.3-65.1.9.1 1.9-.2 2.5-.9 1.3-1.8 8.4-3.9 9.9-4.4 2.6-1 5-2.5 7.4-3.9 6.7-4 14.5-6 21.8-8.5 11.2-3.7 8.5-18.1 8.2-27.1-.4-11.3-1.3-26.7-12.5-32.6-5.1-2.7-11.1-2.4-16.7-2.2-2.1 0-4.3 0-6.5-.1-9.4-1.1-19.2-.6-28.2 1-4.4-40.6-3.6-82.3 11.2-117.9 6.8-16.2 20.4-1.9 26.5 7.4 18.1 27.6 26.3 61.6 32 94.9 6 35.9 27.9 133.8 13.7 179.6z"/><path class="st0" d="M520 180.4c-1.4 2.2-2.3 4.6-3.1 7.1-1.2 3.6-4 7.1-3.9 10.9 0 .9 1.7.9 1.8 0 .5-3.1 2.8-6.5 3.9-9.4.9-2.2 1.7-4.5 2.7-6.6.1 0 .1-.1.2-.2.2-.4.3-.8.5-1.2.4-1.3-1.5-1.6-2.1-.6zm2.5 5.5c-1.9 1.9-1.8 5.3-2.7 7.7-1.6 4.3-3.5 8.5-4.5 13-.1.6 1 1 1.2.4.9-3 2.2-5.9 3.4-8.8.7-1.8 1.5-3.6 2.2-5.4.5-1.4.7-3.4 1.3-4.9.2 0 .4 0 .4-.2.2-.5.3-.7.4-1.3.1-.9-1.2-1-1.7-.5zm1 8.8c-1.9 2.6-2.2 6-3.6 8.9-.7 1.4-1.1 2.9-1.8 4.4-.5 1.1-.9 1.5-.9 2.7 0 .7 1.3.9 1.4.2.2-1.4 1.3-2.8 1.9-4.1.7-1.5 1.4-3.1 2-4.7.8-2.1 2.1-4.7 2.1-6.9.1-.6-.8-1-1.1-.5zm2.3 4.5c-1.1 2.7-2.6 5.2-3.7 7.8-1.2 2.8-2.4 5.7-3.6 8.5-.3.6.8 1.1 1.1.5 1.4-2.8 2.5-5.8 4.1-8.5 1.3-2.3 3.2-5.3 3-8.1-.1-.3-.7-.6-.9-.2zm1.2 7.4c-1.6 1.8-2.3 4.1-3.7 6-.8 1.1-1.9 2.7-1.8 4 0 .5 1 .8 1 .2.1-1 1-1.8 1.6-2.6.6-.7 1.1-1.6 1.6-2.4 1-1.4 1.8-3.1 2.2-4.8.2-.5-.5-.8-.9-.4zm-38.5 32.7c-.7-.6-1.6-.8-2.4-1.1-1.2-.5-2.2-1.5-3.2-2.3-2-1.7-5.4-4.1-6.2-6.7-.2-.6-1.3-.7-1.2 0 .6 2.8 3.6 5.5 5.7 7.3 1.9 1.7 4.3 4.2 7.1 3.6.4-.1.6-.5.2-.8zm8.9-3.4c-3.1-1.6-6.4-2.1-9.4-4.2s-5.5-5-8.4-7.3c-.6-.5-1.3.2-.7.8 3 2.9 5.1 6.4 8.5 8.9 2.6 2 6.8 4.2 10.1 2.9.5-.3.3-.9-.1-1.1zm10.1-2c-3.5-1.1-6.4-2.7-9.3-4.8-1.1-.8-2.2-1.7-3.3-2.6-.5-.4-5.4-5-4.8-5.2.5-.1.2-.8-.2-.9-.2 0-.4 0-.6-.1-.3 0-.7.1-.7.5-.1 3.9 4.5 6.7 7.2 8.9 3.2 2.7 7.2 5.3 11.6 5 .7 0 .6-.7.1-.8zm7.3-4.2c-1-.5-2-.6-3-.8-2-.4-3.6-1.8-5.1-3.1-1.3-1.2-2.9-2.2-4.3-3.3-1-.8-3.1-1.8-3.5-3.2-.1-.4-.9-.4-.8.1.3 1.1.8 1.6 1.7 2.2 2.2 1.6 4.4 3.7 6.2 5.7 2.2 2.5 5.6 4.7 8.9 3.2.4-.1.2-.6-.1-.8zm4.5-2c-3.2-2.6-7-4.1-9.8-7.2-.4-.4-1.2 0-.8.5 2.6 3.3 6.3 6 10.3 7.4.3.1.6-.4.3-.7zm28 61.5c-.1-.5-.9-.6-.9 0 .7 9.1 2 18.4 1.4 27.6-.6 10.2-1.5 32.9-15 34.7-.7.1-.3 1.1.3 1 11.6-1 13.8-11.6 15.4-21.7 2.1-14.2 2.1-27.5-1.2-41.6z"/><path class="st0" d="M536 280.4c-.1-.4-1-.6-1-.1 1.3 12 2.7 23.7 1.7 35.8-.6 7.2-.1 25-8.2 28.8-.6.3.1 1.1.6.9 9-3.7 8.5-18.8 9.6-26.8 1.8-13 .2-25.8-2.7-38.6zm-12.2-18.7c-.2-.4-1-.4-.9.1 3.6 12.5 5 24.9 5 37.8 0 6.3-.3 12.6-.9 18.9-.4 4.3-.1 22.8-8.5 19.3-.7-.3-1.2.6-.5.9 11.6 5.3 10.8-16.8 11.5-23.4 1.8-16.8 2.2-38.2-5.7-53.6z"/><path class="st0" d="M520.7 270.7c-.1-.5-1.1-.6-1.1 0 .6 11.2 1.2 22.5 1.3 33.7 0 2.3-1.8 30.5-7.3 27.4-.8-.4-1.8.4-.9 1 6.4 4.2 9.1-11.2 9.6-14.2 1.4-7.7 1.3-15.7.8-23.5-.5-8.1-.3-16.3-2.4-24.4z"/><path class="st0" d="M511.7 263.5c-.1-.4-.8-.4-.7.1 2 10.8 3.3 21.4 3.3 32.4 0 5.1-.4 10.1-1 15.2-.4 3.4-.2 9.7-3.4 11.9-.3.2 0 .7.3.5 5.9-2.8 5.1-15.7 5.7-21 1.4-12.7-.2-26.9-4.2-39.1zm-9.1-2.1c-.1-.3-.5-.3-.4 0 .9 5.5.6 10.8 1 16.3.4 5.6.8 14.7-.8 20-.2.6.8 1 1 .4 1.8-5.3 1.1-12 1.5-17.6.6-6.1-.6-13.2-2.3-19.1zm-6.1-.5c-.1-.5-.9-.6-1 0-.8 7.7-1.2 16.2-.3 23.8.1.8 1.5.9 1.4.1-.3-7.8 1.9-16.5-.1-23.9zm-6.8-4.1c-.1-.5-1-.6-1.1 0-.3 5.3.2 10.9.8 16.1.1.7 1.4.9 1.4.1-.3-5.3.2-10.9-1.1-16.2zm-5.3 2c-.7 2.9-.3 5.9 0 8.9.1.7 1.5.9 1.4.1-.2-2.9-.3-5.8-.5-8.7-.1-.4-.8-.7-.9-.3zm-2-187.9c-.6-.3-.8.5-.3.8 7 3.6 8.6 10 11.8 16.5.2.3.9.5.8 0-1.6-7.2-5.6-14-12.3-17.3zm4.9-6.3c-.7 0-.3.9.2.9 4.4.3 7.4 5.6 9 9 1.5 3.2 2.3 6.6 3.8 9.8.2.4 1.1.4 1-.1-1-6.9-5.1-19.8-14-19.6zm19.9 6.3c-3-4.7-7.5-12.9-13.5-13.9-.8-.1-.8.9-.1 1.1 5.9 1.3 12.4 14.7 14.8 19.3 4.8 9.4 7.3 19.1 11.3 28.8.2.5 1.3.6 1.1-.1-2.5-12.8-6.6-24.3-13.6-35.2zm-22.7 12.4c-1.3-2.3-3.6-3.7-5.7-5.2-.6-.4-1.7.2-1.1.8 1.9 1.9 4.2 3.4 5.4 5.9 1.1 2.4 1.5 4.9 3 7.1.2.3 1.1.4 1-.2-.5-2.7-1.2-5.8-2.6-8.4zm-7.8 5.6c-.5-.4-1.3.1-.7.6 3.9 3.6 4.5 8.7 7 13.1.2.3 1 .5 1-.1-.9-4.9-3.4-10.3-7.3-13.6zm-3.7 12.8c-.4-.7-1.8-.5-1.4.3 1 1.9 1.9 3.9 2.7 5.9.8 1.9 1.2 4 2.1 5.8.2.4.9.5.9-.1.1-4.1-2.3-8.4-4.3-11.9zm-5.2 6.7c-.4-.7-1.7-.2-1.2.6 1.4 2.3 2.2 4.9 3.8 7.1.2.3.9.3.8-.2-.8-2.6-2-5.2-3.4-7.5zm-217.3 70.1c-2.5-.7-4.7 3.2-5.7 4.8-2.1 3.2-4.6 6.1-6.8 9.3-.3.4.4 1 .7.6 2.2-2.4 4.5-4.7 6.5-7.3 1-1.3 1.9-2.8 3-4.1.8-1 1.9-1.5 2.7-2.5.2-.3 0-.7-.4-.8zm-2.6 12c-2.5 1.1-3.5 4.7-4.8 7-.8 1.5-1.6 3-2.6 4.3-1 1.4-1.9 3.9-3.3 4.8-.3.2 0 .6.3.5.6-.3.9-.7 1.4-1.3 1.2-1.6 2.6-3.1 3.8-4.7 2.4-3.1 3.5-6.9 5.6-10.1.2-.2-.2-.6-.4-.5zm-2.3 15.8c-1.8-.7-2.8 1.8-3.4 3-1.5 3.3-3.6 6.4-5.4 9.5-.3.6.7 1.1 1.1.6 2.6-4.1 5-8.6 8-12.3.1-.3-.1-.7-.3-.8zm5.9 5.7c-2.6 1.2-4.3 4.6-5.6 7.1-1.1 1.9-2.4 3.7-3.6 5.5-1.1 1.7-2.2 4.2-3.7 5.5-.5.4.3 1.1.7.8 2.6-2.1 4.2-5.7 6.2-8.4 2.3-3.2 4.2-6.7 6.7-9.8.4-.3-.3-.8-.7-.7zm-1.4 11.3c-2 2.5-3.3 5.3-4.5 8.2-1.1 2.6-2.1 5.9-4.4 7.7-.5.4.3 1.1.7.8 2.5-1.7 3.6-4.6 4.9-7.2 1.4-2.9 2.8-5.9 4.1-8.9.3-.5-.5-.9-.8-.6zm-2.7 21.1c-1.9 1.9-2.9 4.1-3.9 6.5-.5 1.2-.9 2.5-1.4 3.8-.6 1.6-1.6 2.3-1.6 4 0 .5 1.1.8 1.1.2.1-1.5 1.2-2.4 2-3.7.7-1.2 1-2.6 1.7-3.8.8-1.5 1.6-3 2.4-4.6.4-.8.8-1.1.8-2 0-.3-.7-.8-1.1-.4zm2 10.8c-1.6 0-2.5 2.3-3 3.6-1.7 3.9-3.3 7.8-4.7 11.9-.2.5.8 1 1 .5 2.3-5.2 4.7-10.2 7.2-15.3.1-.3-.2-.7-.5-.7zm2.9 9.1c-2.6 2.4-4.1 6-5.3 9.2-1 2.6-3.3 5.3-3.6 8.1 0 .4.7.8.8.3.3-1.4 1.5-2.7 2.2-3.9.9-1.6 1.8-3.2 2.5-4.9 1.2-2.8 3.3-5.3 4.2-8.2.1-.5-.5-.9-.8-.6zm3.5 7.6c-2.2 1.7-2.8 4.8-3.9 7.2-1.1 2.4-1.5 6.6-3.8 8.2-.5.3.2 1 .7.8 2-1.1 2.9-3.8 3.5-5.8.5-1.5 1.2-2.8 1.8-4.2.7-1.6 1.2-3.4 2.4-4.8h.1c.2-.2.3-.3.4-.6.3-.7-.7-1.2-1.2-.8zm.9 14.6c-2 1.4-2.8 4.1-3.9 6.2-1.1 2.2-2.2 4.9-2.1 7.4 0 .6 1.1.8 1.1.1 0-2.7 1.5-5.3 2.8-7.6 1-1.7 2.3-3.7 2.9-5.6.1-.4-.4-.8-.8-.5zm4.3 7.1c-2.6.4-4 3.3-5 5.4-1.3 2.5-2.4 5.1-2.3 7.9 0 .6 1.2.8 1.2.1 0-4.6 3.5-9.7 6.7-12.7.3-.3-.3-.7-.6-.7zm1.5 12.1c-4.2 5.3-3.4 13.1-5.7 19.2-.2.4.5.9.8.4 1.2-2.6 1.7-5.3 2.3-8 .8-3.7 2.4-7.4 3.5-11.1.1-.4-.6-.9-.9-.5zm2 13.1c-2.3 1.5-2.9 5-3.8 7.4-.4 1.1-.7 2.4-.7 3.6 0 1.2-.8 2.4-.8 3.7 0 .6 1 .8 1 .2.1-1.4.9-2.3 1-3.7 0-1.4.6-2.8 1.1-4.1.8-2.1 2.3-4.4 2.8-6.6.1-.2-.3-.6-.6-.5zm3.5 5.5c-2 .3-2.6 3-3.1 4.6-.9 3.1-1.6 6.3-2.4 9.4-.1.6.9 1 1.1.3.8-2.6 1.8-5.2 2.4-7.8.3-1.2.6-2.4 1.1-3.6.4-.9 1-1.5 1.4-2.4.2-.3-.2-.6-.5-.5zm2.9 8c-1 1.6-1.5 3.5-2.1 5.2-.7 2.1-1.5 4.2-2.3 6.3-.2.5.8 1 1 .5 1.5-3.6 3.8-7.7 4-11.6.1-.4-.4-.7-.6-.4zm4.2 6.5c-1.9 1-2.3 3-2.7 4.9-.7 3.2-1.2 6.4-2 9.6-.1.5.7 1 .9.4.8-2.6 1.3-5.3 2-7.9.6-2.3 1.3-4.3 2.3-6.4.1-.3-.1-.8-.5-.6zm2.5 8c-1.4 1.4-1.7 3.1-2.1 5-.3 1.4-.5 2.9-.9 4.2-.4 1.3-.2 2.5-.6 3.8-.1.5.6.9.8.4 1.4-4.2 1.2-9.1 3.2-13.2.1-.1-.2-.4-.4-.2zm4.4 4.1c-3.8 4.2-5 11.9-4.6 17.4.1.7 1.3 1 1.3.2-.2-6.1 2.2-11.5 3.9-17.2.1-.2-.4-.6-.6-.4zm3.4 4.3c-3.9 5.3-5.8 14.1-5.4 20.5.1.8 1.5.9 1.4 0-.2-7.3 3.5-13.1 4.8-20 .2-.5-.5-.9-.8-.5zm3.7 7.9c-3 4.3-4.5 11.1-4.1 16.3.1.8 1.5.8 1.5-.1-.3-5.7 2.9-10.4 3.3-15.8.1-.4-.4-.8-.7-.4zm6.4-1c-3.2 4.5-2.8 10.2-5.2 15-.3.6.7 1.1 1.1.6 1.1-2 1.1-2.1 1.9-4.2.6-1.6 0-1.8 1.7-6.7.5-1.4 1.2-2.7 1.3-4.2-.1-.4-.6-.8-.8-.5zm-92.1 41.3c-.3-.1-.6-.1-.9-.2-2.1-.6-4.3-.4-6.5-.8-.7-.1-.5.7-.1.9 1.7.7 3.7.8 5.4 1.2 1 .2 1.8.8 2.7.7h.2c-.3-.6-.6-1.2-.8-1.8zm7.9 9.4c-1-1.2-2.9-1.3-4.4-1.4-2.2-.1-4-1.6-6.2-1.3-.6.1-.4.9.1.9 1.9.2 3.3 1.5 5.1 1.8 1.6.3 3.3.5 5 .7.5.1.6-.4.4-.7zm18 7.5c-2.3-1.5-4.8-1.7-7.5-1.5-2.8.2-5.4.3-8.2-.4-1.6-.4-3.1-.6-4.7-.5-.7 0-.3 1 .2 1 3.2.1 5.8 2.2 9 2 3.7-.2 7.1-.6 10.8.1.6.2.8-.5.4-.7zm3.6 18.9c-1.4 1.4-2 3.5-2.8 5.3-1.3 2.7-2.7 5.5-4.1 8.1-.2.4.4.8.6.5 2.6-4.2 5.4-8.7 6.8-13.5 0-.3-.3-.7-.5-.4zm-.2 10.9c-2.5 2-3.1 5.2-4.5 8-.7 1.4-1.1 2.6-1.6 4.1-.4 1.1-1.3 4.3-2.1 5.1-.2.2.1.8.4.6.6-.3 1.1-.5 1.2-1.3.4-1 .8-1.9 1.4-2.8.8-1.3 1.1-2.8 1.9-4.2 1.6-2.8 3-5.9 4-8.9.1-.4-.4-.9-.7-.6zm1.2 13.2c-2.3 1.9-3.2 4.6-4.1 7.4-1.1 3.1-2.4 6-3.1 9.2-.1.5.7 1 .9.4 2.1-5.6 5.2-10.8 7.2-16.4.1-.5-.6-.9-.9-.6zm1.5 11.3c-1.8-.5-2.5 1.8-2.9 3.2-.4 1.6-1.2 3-1.7 4.6-.7 2.1-.6 4.7-1.9 6.5-.2.2.1.7.4.5 1.8-1.4 2.3-3.8 3-5.9.4-1.3 1-2.4 1.5-3.6.6-1.4.9-3.3 2.1-4.4.3-.3-.2-.8-.5-.9zm1.1 11.1c-3.2 3.5-2.8 9.7-4.4 14-.1.3.4.7.6.3 1-2 1.7-4.2 2.3-6.4.7-2.5 2-4.9 2.5-7.4.1-.5-.7-.9-1-.5zm5.2 11.2c-1.4 1.9-1.5 3.7-1.9 6-.5 2.9-1.3 6.1-.9 9 .1.4.7.7.8.2.4-5 2.2-9.8 2.7-14.8 0-.3-.4-.8-.7-.4zm3.8 4.8c-1.5 2.2-1.6 5-1.9 7.6-.4 3.6-1.7 7.4-1.6 10.9 0 .5.9.8 1 .3.4-3.3 1.8-6.8 2.4-10.2.5-2.6 1.2-5.6 1.1-8.3 0-.4-.7-.7-1-.3zm3 6.3c-.6 1.7-.9 3.4-1.3 5.1-.8 3.5-.3 7.3-1.3 10.7-.1.4.6.9.8.4 1-2.8 1-5.8 1.5-8.8.4-2.5 1.3-4.8 1.1-7.3-.1-.3-.7-.6-.8-.1zm3.7 6.4c-1.7 2.5-1.2 5-1.8 7.9-.5 2.7-.2 5.7.2 8.3.1.3.6.5.6.1 0-2.9.5-6.2 1.2-9.1.4-1.8.4-3.7.9-5.5.1-.4.3-.8.3-1.2.3-.9-1-1-1.4-.5zm4.9 4.9c-1.1 1.9-1.1 3.9-1.2 6-.2 3.6-.5 7-.2 10.6 0 .5.8.6.8.1-.2-5.4.8-11 1.3-16.4 0-.4-.5-.7-.7-.3zm.9-.5c-.1 0-.1.2 0 .2.1-.1.1-.2 0-.2zm3.8 6.7c-.1-.3-.5-.5-.7-.1-1.4 3.5-1.2 1.1-1.6 3.8-.3 1.6-.3 3.4-.5 5-.2 3-.2 5.9.1 8.9.1.6 1.2.8 1.1.1-.2-3.3 0-6.5.4-9.8.2-1.6.1-4.4 1.1-5.8.6-.8.3-1.4.1-2.1zm4.4 4.5c-1.3 2.2-1.3 5-1.5 7.5-.2 3-.2 6.1 0 9.1 0 .4.9.6.9.1-.3-5.6.9-10.8 1.3-16.3.1-.4-.4-.8-.7-.4zm5.3 4c-2.3.7-2.8 3.7-3.2 5.8-.8 4.3-1.9 8.6-1.6 13 .1 1 1.8.9 1.8-.1-.2-3.2.4-6.2 1-9.3.6-2.7.9-6.4 2.5-8.8.2-.2-.2-.7-.5-.6zm2.9 4.5c-1.1 2.6-2 5.2-2.7 7.9-.7 2.7-1.9 5.7-1.8 8.4 0 .8 1.4.9 1.4.1.1-2.7 1.6-5.5 2.2-8.2.6-2.6 1.7-5 1.9-7.7.1-.6-.7-1.1-1-.5zM167.2 459c-2.5-1.1-4.9-3-7.1-4.5-1.5-1.1-3.1-1.9-4.5-3.2-.9-.9-1.9-1.5-3.1-1.9-.7-.3-1.6.6-.8 1.1 1.9 1.1 1.5 1.6 2.9 2.8 1 .9 2.1 1.7 3.1 2.5 1.2.9 2.5 1.8 3.7 2.7 1.6 1.2 3.8 3.3 5.9 1.9.7-.5.5-1.2-.1-1.4zm1.1-6.3c-.8-.3-.8-.8-1.5-1.2-1-.6-2-1.3-3-1.9-4-2.5-8.5-4-12.4-6.9-.6-.5-1.7.2-1 .8 3.2 2.6 6.9 4.3 10.5 6.2 2.2 1.2 4.7 4.1 7.3 3.8.6-.1.4-.7.1-.8zm2.5-5.5c-4.6-2.7-9-5.5-14-7.5-.7-.3-1.2.7-.4 1 2.8 1.2 5.6 2.7 8.2 4.3 2 1.2 3.6 3.1 6.1 3.1.6-.1.4-.7.1-.9zm.1-4.5c-2-1.7-4.4-3.2-6.8-4.2-.6-.3-.8.6-.2.9 2.4 1 4.4 2.8 6.8 3.9.4.1.5-.4.2-.6zm5.3-6.9c-1.1-.9-2.5-1.1-3.7-1.8-.9-.5-2-.7-2.7-1.6-.4-.6-1.7-.3-1.2.4.7 1 1.7 1.5 2.8 2 1.5.7 2.9 1.5 4.6 1.6.4.1.4-.4.2-.6zm3.9-.9c-1.1-1.4-2.8-2.3-4.6-2.2-.7 0-.3.9.2.9 1.7-.1 2.7 1 4 1.8.5.2.6-.2.4-.5zm-43.5-12.8c-4.7-4.2-11.2-6.2-16.5-9.6-.5-.3-1.4.2-.8.7 2.7 2.6 6.2 3.9 9.3 5.8 2.5 1.5 5 2.7 7.7 3.7.4.3.6-.3.3-.6zm6.9-4.2c-1.4-.3-2.3-1.2-3.3-2.1-1.2-1-2.6-1.7-4-2.6-2.1-1.3-4.3-2.5-6.6-3.4-.6-.3-.8.6-.3.8 3.3 1.4 6.6 3.4 9.5 5.5 1.5 1.1 2.8 2.7 4.8 2.4.4 0 .2-.5-.1-.6zm10.6.2c-2.5-1.8-5.4-3-8.1-4.5-2.2-1.3-4.8-3.5-7.4-4-.5-.1-.4.7 0 .8 1.1.3 2.3 1.4 3.3 1.9 1.5.8 2.8 1.9 4.2 2.8 2.4 1.5 5 2.9 7.7 3.7.6.1.6-.5.3-.7zm10.9-1.7c-2.7-1.7-5.7-2.9-8.5-4.6-.8-.5-1.6-1.1-2.4-1.6-1.4-.8-4-1.1-4.8-2.6-.2-.4-1.1-.4-.9.2.2.8.8 1.9 1.6 2.1 2.4.7 4.1 2.2 6.1 3.5 2.7 1.7 5.5 3 8.6 3.7.6.2.7-.4.3-.7zm14.9-2.4c-2.6-2.6-5.8-4.8-8.8-7-2.5-1.8-5.9-2.7-8.1-4.9-.7-.7-2.3.1-1.5.9 2 2.1 5 3.3 7.5 4.7 1.9 1.1 3.4 2.7 5.2 3.9 1.8 1.2 3.4 2.3 5.3 3 .5.2.7-.3.4-.6zm3.5-5.5c-1.6-1.8-3.6-3.4-5.8-4.3-.5-.2-.6.6-.1.7 2.2.9 3.6 2.8 5.6 4 .3.3.6-.2.3-.4zm5.5-3c-1.2-.7-2.2-1.6-3.5-2.2-1.4-.6-2.4-1.9-3.8-2.5-.7-.3-1.1.6-.4 1 1.2.6 2.1 1.7 3.3 2.4 1.3.8 2.8 1.6 4.2 2 .5.2.6-.4.2-.7zm-109.8-9.2c-1.9-3.1-6.8-3.6-9.8-5.7-4.2-3.1-9-5.3-13.1-8.5-.5-.4-1 .2-.5.6 3.3 2.7 6.9 5.1 10.5 7.3 1.5.9 3 1.9 4.5 2.9 2.5 1.6 5.6 2.1 7.9 3.9.4.3.7-.2.5-.5zm1-6c-2.7-2.3-6.2-3.5-9-5.7-3.2-2.4-6.6-4.4-10-6.5-.5-.3-1 .3-.5.7 6.3 4.2 12.3 9 19.3 12.1.4.2.5-.4.2-.6zm-6.6-11c-1.5-1.7-3.7-2.6-5.5-3.9-1.9-1.4-4.4-2.2-6.1-3.8-.5-.5-1.5-.1-1 .6 1.5 1.8 3.7 2.3 5.6 3.7 2 1.6 4.2 3.2 6.6 4 .4.3.6-.3.4-.6zm-.9-8c-1.6-1.8-4.5-2.1-6.5-3.5-1-.7-2.2-1.3-3.2-2-.7-.5-1.7-.4-2.5-.9-.6-.4-1 .4-.5.8.7.5 1.4.8 2.2 1 1 .3 2.2 1.4 3.1 2 2.1 1.5 4.6 2.6 7.1 3.4.5 0 .6-.6.3-.8zm-4.5-8.9c-1.6-.9-3.3-1.5-4.9-2.3-1.8-.9-3.6-1.9-5.2-3.2-.5-.4-1 .2-.5.6 3 2.4 6.9 4.5 10.6 5.4.3.1.2-.4 0-.5zm-.7-7.6c-4.2-1.2-8.6-3.1-12.5-5.3-.7-.4-1.1.5-.5.9 2.3 1.4 4.7 2.5 7.2 3.5 2.1.8 3.5 2.5 5.9 1.6.4-.1.2-.6-.1-.7zm-4.9-9.3c-1.8-1.3-4.1-1.6-5.9-3-.5-.4-1 .3-.5.8 1.8 1.4 4.1 2.1 6.3 2.8.4.1.3-.4.1-.6zm.8-5.8c-2.4-2.6-6.2-3.2-8.9-5.2-.7-.6-1.8.4-.9 1.1 1.4 1 3 1.5 4.5 2.2.8.4 1.5.9 2.2 1.3.9.4 1.9.7 2.7 1.2.4.2.7-.3.4-.6zm-2.9-10.2c-2-1.7-4.6-2.5-6.6-4.2-.5-.4-1 .3-.5.7 2 1.6 4.6 2.9 7 3.9.3.2.3-.2.1-.4zm-.2-10.4c-.2-.2-.4-.2-.6 0-3.4-1.2-6.3-3.6-9.9-3.9-.7-.1-.6.9.1 1 3.7.5 6.5 3.5 10.1 4.4.3.1 1-.2.9-.6-.2-.5-.4-.7-.6-.9zm-2.5-8.4c-.9-1.5-2.7-2-4.3-2.7-2.2-1-4.5-1.4-6.9-1.2-.6.1-.3.9.2.9 4.1-.1 7 2.1 10.6 3.5.3.2.6-.2.4-.5zm-1-7.7c-.1-.2-.3-.3-.5-.5 0 0-.1 0-.2-.1-2.5-1.7-6-1.5-8.5-3.3-.7-.5-1.7.4-.9 1 2.7 2.1 6.3 2.1 9.1 3.9.7.5 1.7-.4 1-1zm-3.1-5.8c-.6-1.5-3-1.4-4.2-2.2-.5-.4-1.3-.3-1.9-.4-1-.2-1.9-.5-2.9-.5-.7 0-.3 1 .2 1 .8 0 1.5.3 2.3.6.4.2 1.3.1 1.7.4 1.1.8 3 1.3 4.3 1.6.4.1.6-.2.5-.5zm-.3-7.8c-.6-.5-1.4-.4-2.1-.6-1.1-.3-2.1-.8-3.1-1.3-1.9-1-3.6-2.3-5.7-3.1-.9-.4-1.5.8-.6 1.2 3 1.3 8.1 6.6 11.6 4.6.4-.2.1-.6-.1-.8zm-.7-6.3c-1.4-.7-2.6-1.5-4-2.1-1.8-.8-3.7-1.4-5.5-2.3-.7-.3-1.1.5-.5.8 2.2 1.2 4.6 1.9 6.7 3.3 1 .7 2.2 1.4 3.4.9.3 0 .1-.4-.1-.6zm-1.7-7.8c-.9-1.2-2.9-1.6-4.2-2.3-1.7-.8-3.3-1.7-5-2.5-.7-.3-1.6.7-.8 1.2 1.7.8 3.3 1.8 4.9 2.7 1.5.8 3.1 1.8 4.9 1.6.4-.1.4-.5.2-.7zm-.6-5.7c-.8-1.2-2.7-1.9-3.9-2.6-1.3-.7-2.8-1.3-4.3-1.2-.9 0-.8 1.3.1 1.2 1.5-.1 2.7.5 3.9 1.2 1.2.7 2.5 1.9 4 1.8.3.1.4-.2.2-.4zm-1.7-5.1c-.8-1-2.1-1.6-3.1-2.3-1.2-.8-2.3-1.6-3.4-2.5-.6-.5-1.7.2-1 .8 1.1.9 2.2 1.6 3.3 2.4 1.2.8 2.5 1.7 4 2.1.3.1.4-.3.2-.5zm0-9.9c-1.3 0-2.5.6-3.7 1.2-.6-.3-1.2.4-.6.9 1 .8 2.9 1.9 4.1 1.3.4-.2.1-.6-.2-.7-1-.3-1.9-.6-2.8-1.1 1-.5 2-1 3.1-1.2.4 0 .3-.4.1-.4zm71 147.6c-4.2-2.9-8.7-5.2-12.8-8.3-4-3.1-9.3-6.6-10.4-11.9-.1-.6-1.1-.6-1 .1.8 4.8 4.8 8 8.4 11 4.6 3.8 9.7 7.7 15.4 9.7.5.3.9-.3.4-.6zm13.4-3.7c-3.3-1-6.7-1.4-9.5-3.5-3.4-2.5-7-4.7-10.3-7.3-.6-.5-1.3.2-.7.7 5.8 4.9 12.4 11.2 20.6 10.9.4 0 .3-.7-.1-.8zm11.5-1.5c-6.4-2.8-12.3-5.8-17.6-10.6-.5-.5-1.3.1-.7.6 5.2 4.7 11.4 8.6 18.2 10.5.3.1.4-.4.1-.5zm17.1-5.3c-4.7-1.4-9.4-2.6-13.8-4.9-2.4-1.2-4.3-3.1-6.7-4.2-.7-.3-1.1.5-.5.8 2.7 1.3 5.1 3.6 7.8 5.2 3.8 2.2 8.7 3.5 13 4.1.6.1.8-.8.2-1zm16.4-2.6c-6.3-2.7-15.8-5.6-19.3-12-.3-.5-1.3-.3-1 .3 1.7 3.4 4.6 5.3 7.8 7.3 3.7 2.3 8.2 4 12.4 5.1.5.1.4-.5.1-.7zm24.8-1.8c-8.4-3-20.6-3.2-26.1-11.3-.4-.6-1.7-.2-1.2.5 5.2 8.3 18.3 10.7 27.2 11.6.5.1.6-.6.1-.8zm18.4-1.1c-4.9-1.8-9.9-3.2-14.7-5.4-4.8-2.2-9.1-5.6-13.7-8.1-.6-.3-1.1.4-.5.7 9.5 5.4 17.8 11.5 28.8 13.6.6 0 .5-.7.1-.8zm14.4-2.5c-3.5-2-7.4-3-10.8-5.5-3.7-2.8-7.8-5.1-10.8-8.6-.3-.4-.8.1-.5.5 2.4 3.1 5.4 5.2 8.5 7.5 4.2 3.1 8.1 5.7 13.3 6.9.6 0 .7-.6.3-.8zm13-3.1c-3.9-1.2-7.1-2.9-10.5-5.1-3.7-2.4-8-4.6-10.5-8.4-.5-.7-2-.3-1.5.6 2.3 3.9 6.2 6.2 9.9 8.7 3.9 2.5 7.7 5.4 12.5 5.1.7 0 .5-.7.1-.9zm8.5-2.9c-4.1-3.1-9-4.6-12.9-8.1-.4-.4-.9.2-.5.6 3.7 3.5 8.5 6.1 13.1 8.1.5.2.6-.4.3-.6zm9.8-5.6c-2.1-1.5-4.2-2.8-6.4-4.2-2.2-1.3-4.7-1.7-6.8-3.3-.5-.4-1.3.2-.7.7 1.5 1.1 3.1 1.8 4.8 2.5 3.1 1.1 6 3.3 8.9 4.9.4.2.5-.4.2-.6zm58.8-17.8c-2.3-1.4-5.2-1.4-7.5-3-.6-.4-1.7-.5-2.3-.7-1.1-.4-2.2-.9-3.2-1.5-.5-.3-1.4.2-.8.7 1.8 1.6 4 1.9 6.1 3.1 2.3 1.3 5.1 2 7.8 2.2.4.1.1-.6-.1-.8zm14.4-.6c-.8-.7-1.4-1-2.4-1.3-2.6-.7-4.7-1.4-7.2-2.7-1.8-1-5.3-1.8-7.4-1.3-.1 0-.1.1-.1.2.1.4.1.8.2 1.2 0 .1.2.1.2 0-.1-1.9 8 1.7 8.8 2.1 2.5 1.3 5.2 1.2 7.7 2.4.3 0 .4-.4.2-.6zm5.9-3.4c-2.8-1-5.5-1.9-8.4-2.8-.3-.1-.4.4-.1.5 2.8.8 5.6 1.9 8.4 2.6.3.1.3-.3.1-.3zm18.7 1.1c-5.7-2.1-11.3-4.3-16.8-6.6-.5-.2-.6.5-.2.6 5.5 2.5 11 5.1 16.9 6.5.3 0 .3-.5.1-.5zm9.1-3.3c-4.6-2.3-9.4-3.8-13.9-6.3-.7-.4-1.1.5-.5.9 4.4 2.6 9.2 4.8 14.1 6.2.6.1.7-.6.3-.8zm24.8.1c-7-1.9-14-4.5-20.3-8-.5-.3-.8.4-.3.7 3.1 1.8 6.3 3.4 9.6 4.6 3.5 1.2 7.3 3.2 11 3.2.3-.1.2-.5 0-.5zm12-3.5c-2.2-1.3-4.7-2-7.1-2.9-4.3-1.6-8.8-3.8-12.9-5.8-.5-.3-.9.5-.4.8 6.4 3.4 13.3 6.3 20.2 8.5.5.1.4-.5.2-.6zm13.4.4c-2.8-1.5-5.7-2.5-8.5-3.9-2.4-1.2-4.2-3.1-6.8-4-.6-.2-.6.6-.1.8 2.7 1 4.6 3.2 7.1 4.6 2.4 1.3 5.5 2.5 8.1 3.2.5.2.6-.5.2-.7zm17.6 1.9c-7.4-4.6-15.5-8.4-23.7-11.3-.7-.2-.8.7-.2.9 7.9 3.5 15.5 8.2 23.7 11 .4.1.6-.4.2-.6zm5.9-4.1c-2.4-1.1-4.8-2.1-7.1-3.5-2.2-1.3-5-1.5-7.2-2.8-.6-.3-1.1.4-.5.7 2.1 1.2 4.2 1.8 6.5 2.6 2.8.9 5.4 2.6 8.3 3.6.3.1.3-.4 0-.6zm27 6.8c-2.9-3.2-7.4-4.6-10.9-7-3.7-2.5-7.7-4.5-11.9-6.1-.7-.3-.8.7-.2.9 8.1 3.3 15 8.7 22.6 12.8.4.3.7-.2.4-.6zm9-1.5c-5.8-3.9-11.9-7.4-17.8-11.2-.6-.4-1.1.4-.5.8 3.2 2.1 6.5 4 9.7 6.1 2.8 1.8 5.1 3.9 8.3 5 .5.2.7-.4.3-.7zm15.2 1.5c-6-3.1-12.2-5.8-18-9.4-.6-.4-1.4.4-.7.8 5.8 3.6 12.1 6.9 18.6 9.2.3.2.4-.4.1-.6zm1.7-4.6c-.1 0-.1.2 0 .2s.1-.2 0-.2zm-90.9-229.2c-17.2 11.6-33.8 24-51.5 34.8-18.6 11.3-39.6 23-61.3 26.5-.4.1-.2.7.1.7 18.2-2.1 35.5-10.8 51.5-19.4 21.8-11.8 42.5-26.4 62.1-41.6.5-.5-.4-1.3-.9-1zM368.3 153c-4.1 2.5-7.9 5.3-11.7 8.1-4.4 3.1-9.6 7.7-14.9 9-.4.1-.1.7.3.6 4.5-.8 8.4-4 12.1-6.4 5.1-3.3 10.1-6.9 14.9-10.6.5-.3-.2-1-.7-.7z"/></svg>