<svg id="Layer_1" xmlns="http://www.w3.org/2000/svg" viewBox="0 0 1010.3 1227.6"><style>.st0{fill:#ffc555}</style><path class="st0" d="M890.9 1150.6c-36.6-142.5-35.4-288.3-16.7-432.2 9.5-73.7 23.3-146.6 38.3-219.3 15.4-74.6 28.7-150.7 55.8-222 .9-2.3.8-4.4.1-6.1-.7-2.6-2.6-4.9-6.2-5.8-36.3-9.5-72.7-19-109-28.4 15.6-33.6 15.2-74.4-12.6-99.1-24.8-22-64.1-35.9-96.1-23-34 13.8-48.3 46.1-55.2 79.3-50.1-13.1-100.2-26.1-150.4-39.2 2.2-7.9 3.8-15.4 4.5-21.7 3.9-34.2-12.7-68.2-42.3-87.7-55.7-36.8-129.9 2-132.6 64.9-25.8-6.7-51.6-13.4-77.4-20.2-4.7-1.2-10.8.6-12.1 5.8-.3 1.1-.5 2.2-.8 3.3-30.3 15.2-60.7 30.3-91 45.5-2.7 1.3-4.2 3.4-4.7 5.6-.2.7-.4 1.4-.5 2.3-11.8 119.7-32.9 236.3-56.8 353.9-26.5 130.1-41.9 262.4-59.4 394-4.6 34.7-29.9 98.2 2.9 126.4 14.6 12.6 39.9 16.7 57.7 23.3 39.8 14.6 79.8 28.7 120.2 41.5 158.4 50.5 321.2 85.3 485.9 105.6 4.2.5 8.3-2.6 9.6-6.3l11.4-34.1c42.3 3.8 84.8 5.8 127.6 5.1 6-.3 11.4-5.1 9.8-11.4zm33.7-798c-30.8-6.1-61.1-14-91-23.7-7.1-2.3-10.6 8.3-3.6 10.6 30.2 9.8 60.8 17.7 91.9 23.9-2.6 10.7-5.2 21.5-7.6 32.2-120.2-40.1-241.7-75.9-364.4-107.5-7.2-1.8-10.8 8.8-3.6 10.6 123.1 31.6 245 67.6 365.5 107.8-1.4 6.3-2.7 12.7-4 19-214.3-59.8-429.5-114-646.4-163 2.3-11.6 4.7-23.3 7.1-34.9.5.3.9.6 1.6.8 69.8 19.2 139.5 38.5 209.3 57.7 7.1 2 10.8-8.7 3.6-10.6-69.8-19.2-139.5-38.5-209.3-57.7-1.1-.3-2.1-.2-3 0 2.5-11 5.4-22.1 8.3-33.2.2.1.4.3.6.4 13.5 5.1 26.9 8.6 41.1 11.1 7.3 1.3 7.8-10 .5-11.2-13.1-2.3-25.6-5.8-38.1-10.5-.6-.2-1.1-.2-1.6-.3 1.7-6.9 3.2-13.8 4.6-20.6 58.8 16.9 117.2 34.9 175.4 53.7-3.4 7.1-3.7 16.1 1.8 23.4 15 20 58.2 8.4 51-18.6-.2-.7-.8-1-1.2-1.5 8-11 14.8-24.5 19.9-38 58.4 15.2 116.8 30.5 175.2 45.7l90.9 23.7c-7 6.8-13.9 13.4-20.2 19.7-6.4-3.3-15.1-3.1-21.5.4-11.1 6-15.1 19.9-10.5 31.4 5.2 12.9 22.7 19.4 36.1 18.5 11-.8 17.7-8 22-16.7 41.9 11.7 84 22.5 126.6 31.5-2.5 8.6-4.8 17.2-7 25.9zm-158.9-67.2s-.1.1 0 0c-.8-1.4-1.2-2.7-.9-3.9 0 1.4.4 2.7.9 3.9zm20.1 6.4h.3c-.1.1-.3.1-.4.2 0-.1 0-.2.1-.2zm160.8-11.5c-4.3 11.8-8.2 23.7-11.8 35.7-42.3-9-84.1-19.6-125.8-31.3v-.3c13.6-6.9 25.4-17.8 34.5-31 34.4 9 68.7 17.9 103.1 26.9zm-183-137.1c22.2-4.6 59.6 12.9 65.4 36.2 4.3 17.3-3.7 32.7-15.5 46.9-30.8-8-61.7-16.1-92.5-24.1 0-.2.2-.3.2-.5 4.4-23.4 15.4-52.9 42.4-58.5zm-356.3-23.7c-2-51.3 66.1-69.6 91.1-22.2 9 17 7.1 32.4 1.6 47.3-30.9-8.1-61.9-16.1-92.8-24.2 0-.4.1-.6.1-.9zm-117.2-5c3-1.5 4.5-3.8 4.9-6.3 20.9.2 58.8 17.5 75 21.7 1.7.4 3.4.9 5.1 1.3 5.2 4.5 12.5 6.1 18.8 4.9 32.8 8.6 65.6 17.1 98.4 25.7-5.7 11.2-11.9 22.2-15.6 33.6-2.6.2-5 1.1-7.3 2.5-60.1-19.5-120.5-38.1-181.3-55.5l.9-6c.6-5.3.4-15 .1-21.4.3-.1.7-.3 1-.5zm-17.6 8.8c-11.1 46.6-21.4 93.4-30.7 140.4-2.4 2.9-3.3 6.9-1.9 10-17 87.1-31 174.8-42.2 262.8-15.9 125.1-29.8 253.4-22.5 380 1.2 21.3-.4 52.8 5.7 79.1-24.4-8.7-48.3-19.1-72.8-27.7 34.6-250.8 76.6-500.1 117.5-749.7 4.2-25.6 8.5-51.3 11.4-77.1 11.9-6 23.7-11.9 35.5-17.8zm442.7 1052.9c-31.2 5.3-77-10.8-108.9-16.2-83.6-14.2-166.5-32.6-248.3-55-76.3-20.8-151.4-45.6-225.6-72.8-10.4-3.8-29.2-7.3-38.9-13.9-27.6-18.8-20.3-43.1-16.2-67.2 5.8-34.2 10-68.6 14.5-103.1 16.5-125.4 33.7-250.7 59.7-374.4 21.8-104.2 38.5-208.5 49.1-314.5 8-4 16.1-8 24.1-12.1-6.7 57.2-17.9 113.9-27.5 170.6-20.4 119.9-40.2 239.8-58.6 360-15 97.7-29.1 195.5-42.6 293.5-.4 3 1.3 4.8 3.6 5.4.2.1.2.2.4.2 28.6 9.7 56.3 22.3 84.8 32 4.3 11.3 10.7 20.8 20.3 27 23.5 15.2 69.8 19.4 97.2 26.7 40.3 10.8 80.6 21.7 121.1 32.1 102.4 26.3 205.8 49.1 310.5 60.1l-7.3 21.8c-.8 8.8-4.6 8.6-11.4-.2zm-199.1-77.8c-52.3-12.1-104.2-25.7-156-39.5-28.8-7.7-57.5-15.5-86.3-23.2-36.3-9.7-65.8-10.5-72.5-52.5-15.1-94.5-8.6-192.2-1-286.7 8.2-102.1 21.3-203.8 37.8-304.8 6.1-37 12.7-73.9 19.8-110.7 216.8 49 432 103.3 646.2 163.1-3.8 19-7.6 37.9-11.5 56.8-14.7 71.7-28.2 143.7-37.6 216.4-18.4 141.8-19.6 285.5 14.5 426-119.3.4-237-18-353.4-44.9z"/><path class="st0" d="M339 773.8l.1-.7.4-.7c15.3-1.8 26.1-5.7 32.4-11.6 6.3-5.9 11.8-16.4 16.5-31.5l46.8-149.7c-13.2 3.3-30.1 6.2-50.8 8.7l-.2-4c17.6-3.2 36.2-9.6 55.7-19.1 19.5-9.6 37.2-20.1 53.1-31.6l1.6.2-63 200.9c-2.4 7.8-4 14.8-4.9 21.2-1.8 13 4.8 23 19.7 30 0 .2-.2.7-.5 1.4L339 773.8zM642.9 650.4c18.7 2.4 33.4 11 44.2 25.7 10.8 14.8 15 31.9 12.7 51.2-3.3 27-17.7 48.4-43.2 64-25.5 15.7-52.4 21.7-80.8 18.1-18-2.3-32-8-41.9-17.1-9.9-9.1-14.2-18.7-13-28.7 1.3-10.2 5.1-17.5 11.5-22 6.3-4.5 13.1-6.3 20.4-5.4 7.2.9 13.3 4.1 18.1 9.7 4.8 5.5 6.8 11.8 5.9 18.8-1.6 12.5-11.1 21.4-28.7 26.6 7.9 4.2 16.5 6.9 25.7 7.9 19.7 2.5 37.2-3.6 52.5-18.2 15.3-14.6 24.4-32.5 27.2-53.5 2-15.7-.6-28.6-7.9-38.5-7.2-9.9-17.9-15.8-32.1-17.6-14.2-1.8-29.6 2.1-46.1 11.8l-2.3-1.3 56-127.5 112 14.2-11.4 37-104.5-13.3-34.2 75.5c21.2-14 41.2-19.8 59.9-17.4z"/></svg>