<svg id="Слой_1" xmlns="http://www.w3.org/2000/svg" viewBox="0 0 86.8 59.9"><style>.st0{fill:#ffe600}.st1{fill:#ff0600}</style><path d="M683 895.9c-3-5-10-6-17-4-23 9-150-15-227-43-88-33-127-51-214-100-33-19-73-40-89-48-36-19-116-95-116-111 0-7 5-9 12-5s8 3 4-4c-14-24 5-34 32-16 24 16 26 16 38 0 11-16 16-15 64 3 29 11 56 18 60 16 3-2 42 24 86 59 94 74 214 137 304 161 112 30 130 36 130 46 0 6 8 9 18 8 42-4 77 1 63 10-7 5-11 13-8 18s-7 8-24 5c-16-2-29 0-29 4 0 11-80 12-87 1z" transform="matrix(.1 0 0 -.1 0 92)"/><path class="st0" d="M806.3 820.1c-3-5-19-7-35-3-22 4-30 2-30-9 0-15-93-53-109-44-5 3-12-1-15-10-4-12-13-14-32-10-17 5-23 3-19-4 5-9-1-12-21-9-4 0-10-5-15-12-4-7-14-14-22-15-19-3-91-52-134-92-17-16-35-27-39-23-4 3-4 1 0-6s-18-42-53-84c-68-81-87-134-55-152 28-16 53-16 47 0-3 7-1 13 5 13s12-5 14-12c4-12 68 19 68 34 0 4 9 8 20 8 12 0 29 15 45 40 14 22 32 40 40 40s21 12 29 28c8 15 26 38 40 51 14 14 26 32 26 42 0 23 71 71 128 88 23 6 42 16 42 21 0 6 3 9 8 8 4-1 18 2 31 6 19 7 21 10 10 18-10 7-6 8 14 4 31-7 68 9 66 27-3 25 2 51 5 55 2 4-8 9-24 10s-31-2-35-8z" transform="matrix(.1 0 0 -.1 0 92)"/><path class="st1" d="M750.1 882c-14.2-5.1-54.9-16.3-91.5-26.4C547.7 826 368.7 726.4 368.7 693.8c0-6.1-8.1-10.2-16.3-8.1-20.3 3.1-199.3-178-249.2-250.2-49.8-74.2-35.6-66.1 19.3 11.2 47.8 66.1 88.5 108.8 88.5 91.5 0-5.1-9.2-18.3-20.3-28.5-20.3-18.3-18.3-41.7 3.1-28.5 6.1 3.1 0-9.2-13.2-27.5l-24.4-34.6 23.4 16.3c12.2 9.2 44.7 42.7 70.2 75.3 52.9 64.1 75.3 79.3 68.1 44.7-4.1-19.3 0-18.3 38.6 12.2C461.2 653.1 553.8 706 663.6 743.7c62 21.4 120 43.7 130.2 50.8 24.4 17.3 46.8 61 38.6 74.2-9.1 15.3-52.8 22.4-82.3 13.3z" transform="matrix(.1 0 0 -.1 0 92)"/></svg>