<svg xmlns="http://www.w3.org/2000/svg" width="16" height="17" viewBox="0 0 16 17"><path fill="#acacac" d="M14.338 12.358c.333.329.507.72.507 1.13 0 .405-.171.8-.497 1.14-.141.148-.287.29-.428.424-.208.201-.405.39-.577.596-.003.008-.01.012-.013.018-.5.542-1.14.817-1.9.817-.066 0-.139-.004-.208-.007-1.13-.072-2.141-.497-2.898-.857a15.495 15.495 0 0 1-5.162-4.043c-1.19-1.43-1.986-2.764-2.52-4.204C.425 6.786.142 5.89.22 4.928a2.42 2.42 0 0 1 .715-1.533l1.12-1.129.007-.007c.329-.316.718-.485 1.12-.485.402 0 .784.17 1.103.485.214.197.422.41.62.614.098.105.204.21.306.312l.899.9c.691.69.691 1.588 0 2.28l-.277.28c-.244.247-.494.503-.764.75.2.446.478.884.89 1.405.85 1.043 1.735 1.85 2.71 2.47.096.06.208.116.326.174.083.043.168.086.254.132l1.04-1.037c.334-.333.722-.508 1.127-.508.409 0 .794.178 1.114.51zm-.632.622l-1.815-1.816-.007-.007c-.102-.11-.27-.239-.474-.239-.208 0-.386.136-.498.246l-1.126 1.127a.7.7 0 0 1-.5.228.711.711 0 0 1-.327-.082c-.013-.008-.026-.017-.04-.023-.095-.06-.207-.116-.325-.176a4.542 4.542 0 0 1-.406-.22c-1.057-.668-2.016-1.542-2.925-2.662L5.26 9.35c-.5-.635-.83-1.168-1.064-1.735-.003-.01-.006-.021-.01-.029-.059-.189-.112-.465.172-.75.003-.005.01-.008.016-.015.287-.257.55-.52.827-.803.095-.093.187-.19.283-.285.35-.348.35-.671 0-1.02l-.899-.9-.313-.319a15.668 15.668 0 0 0-.593-.59l-.01-.01c-.105-.105-.273-.231-.48-.231-.169 0-.34.082-.502.234L1.564 4.022a1.513 1.513 0 0 0-.454.977c-.05.605.062 1.244.369 2.064.497 1.343 1.248 2.595 2.371 3.95a14.63 14.63 0 0 0 4.862 3.809c.682.326 1.591.708 2.57.771.049.004.101.004.15.004.515 0 .907-.168 1.24-.525.204-.24.421-.454.635-.658.142-.139.274-.265.402-.402-.003.003-.003 0 0 0 .336-.35.336-.695-.003-1.032zM8.27 4.071a.446.446 0 0 1 .514-.361 5.08 5.08 0 0 1 2.75 1.425 5.089 5.089 0 0 1 1.426 2.75.447.447 0 0 1-.88.153 4.2 4.2 0 0 0-1.179-2.273 4.178 4.178 0 0 0-2.272-1.18.44.44 0 0 1-.36-.514zm7.15 4.195a.442.442 0 0 1-.514-.362 7.469 7.469 0 0 0-2.097-4.051A7.49 7.49 0 0 0 8.76 1.755a.447.447 0 0 1-.365-.513.443.443 0 0 1 .51-.363 8.353 8.353 0 0 1 4.53 2.35 8.357 8.357 0 0 1 2.348 4.529.437.437 0 0 1-.362.508z"/></svg>